<svg width="20" height="20" viewBox="0 0 20 20" fill="none" xmlns="http://www.w3.org/2000/svg">
<path fill-rule="evenodd" clip-rule="evenodd" d="M10.7419 4.35713C10.5057 4.60987 10.5065 5.01877 10.7437 5.27043L14.5931 9.35459H3.93906L3.85682 9.36049C3.56101 9.40325 3.33301 9.67345 3.33301 10.0004C3.33301 10.3571 3.60435 10.6462 3.93906 10.6462H14.5918L10.7437 14.7303L10.6848 14.8026C10.5083 15.055 10.5272 15.4138 10.7419 15.6436C10.9781 15.8963 11.3618 15.8971 11.599 15.6455L16.4736 10.4726C16.587 10.3598 16.6597 10.2011 16.6658 10.0243C16.6719 9.85054 16.6126 9.67467 16.4878 9.54226L11.5989 4.35516L11.5308 4.29279C11.2932 4.10574 10.9566 4.12736 10.7419 4.35713Z" fill="white"/>
</svg>
